<mxfile host="app.diagrams.net" modified="2020-04-02T13:49:16.579Z" agent="5.0 (Macintosh; Intel Mac OS X 10_15) AppleWebKit/605.1.15 (KHTML, like Gecko) Version/13.0.2 Safari/605.1.15" etag="gjkr_eWmB3J7aNJc_flX" version="12.9.6" type="github">
  <diagram id="yY8FP1khCgJvJXXbFNSa" name="Page-1">
    <mxGraphModel dx="1953" dy="812" grid="1" gridSize="10" guides="1" tooltips="1" connect="1" arrows="1" fold="1" page="1" pageScale="1" pageWidth="850" pageHeight="1100" math="0" shadow="0">
      <root>
        <mxCell id="0" />
        <mxCell id="1" parent="0" />
        <mxCell id="Hg1yuA1bv0Kx8vVud3k1-56" value="" style="group" vertex="1" connectable="0" parent="1">
          <mxGeometry x="260" y="370" width="230" height="100" as="geometry" />
        </mxCell>
        <mxCell id="Hg1yuA1bv0Kx8vVud3k1-54" value="" style="group" vertex="1" connectable="0" parent="Hg1yuA1bv0Kx8vVud3k1-56">
          <mxGeometry width="230" height="100" as="geometry" />
        </mxCell>
        <mxCell id="Hg1yuA1bv0Kx8vVud3k1-52" value="" style="group;container=1;" vertex="1" connectable="0" parent="Hg1yuA1bv0Kx8vVud3k1-54">
          <mxGeometry width="230" height="100" as="geometry" />
        </mxCell>
        <mxCell id="Hg1yuA1bv0Kx8vVud3k1-2" value="Person" style="rounded=1;arcSize=10;whiteSpace=wrap;html=1;align=center;" vertex="1" parent="Hg1yuA1bv0Kx8vVud3k1-52">
          <mxGeometry y="25" width="100" height="50" as="geometry" />
        </mxCell>
        <mxCell id="Hg1yuA1bv0Kx8vVud3k1-50" value="" style="group" vertex="1" connectable="0" parent="Hg1yuA1bv0Kx8vVud3k1-52">
          <mxGeometry x="100" width="130" height="100" as="geometry" />
        </mxCell>
        <mxCell id="Hg1yuA1bv0Kx8vVud3k1-48" value="" style="group" vertex="1" connectable="0" parent="Hg1yuA1bv0Kx8vVud3k1-50">
          <mxGeometry x="35" width="95" height="100" as="geometry" />
        </mxCell>
        <mxCell id="Hg1yuA1bv0Kx8vVud3k1-33" value="" style="group" vertex="1" connectable="0" parent="Hg1yuA1bv0Kx8vVud3k1-48">
          <mxGeometry y="40" width="85" height="20" as="geometry" />
        </mxCell>
        <mxCell id="Hg1yuA1bv0Kx8vVud3k1-23" value="" style="ellipse;whiteSpace=wrap;html=1;aspect=fixed;" vertex="1" parent="Hg1yuA1bv0Kx8vVud3k1-33">
          <mxGeometry y="5" width="10" height="10" as="geometry" />
        </mxCell>
        <mxCell id="Hg1yuA1bv0Kx8vVud3k1-24" value="Lastname" style="text;html=1;align=left;verticalAlign=middle;resizable=0;points=[];autosize=1;" vertex="1" parent="Hg1yuA1bv0Kx8vVud3k1-33">
          <mxGeometry x="15" width="70" height="20" as="geometry" />
        </mxCell>
        <mxCell id="Hg1yuA1bv0Kx8vVud3k1-37" value="" style="group" vertex="1" connectable="0" parent="Hg1yuA1bv0Kx8vVud3k1-48">
          <mxGeometry y="60" width="85" height="20" as="geometry" />
        </mxCell>
        <mxCell id="Hg1yuA1bv0Kx8vVud3k1-25" value="" style="ellipse;whiteSpace=wrap;html=1;aspect=fixed;" vertex="1" parent="Hg1yuA1bv0Kx8vVud3k1-37">
          <mxGeometry y="5" width="10" height="10" as="geometry" />
        </mxCell>
        <mxCell id="Hg1yuA1bv0Kx8vVud3k1-27" value="Profile Img" style="text;html=1;align=left;verticalAlign=middle;resizable=0;points=[];autosize=1;" vertex="1" parent="Hg1yuA1bv0Kx8vVud3k1-37">
          <mxGeometry x="15" width="70" height="20" as="geometry" />
        </mxCell>
        <mxCell id="Hg1yuA1bv0Kx8vVud3k1-38" value="" style="group" vertex="1" connectable="0" parent="Hg1yuA1bv0Kx8vVud3k1-48">
          <mxGeometry y="80" width="95" height="20" as="geometry" />
        </mxCell>
        <mxCell id="Hg1yuA1bv0Kx8vVud3k1-28" value="" style="ellipse;whiteSpace=wrap;html=1;aspect=fixed;" vertex="1" parent="Hg1yuA1bv0Kx8vVud3k1-38">
          <mxGeometry y="5" width="10" height="10" as="geometry" />
        </mxCell>
        <mxCell id="Hg1yuA1bv0Kx8vVud3k1-29" value="Description" style="text;html=1;align=left;verticalAlign=middle;resizable=0;points=[];autosize=1;" vertex="1" parent="Hg1yuA1bv0Kx8vVud3k1-38">
          <mxGeometry x="15" width="80" height="20" as="geometry" />
        </mxCell>
        <mxCell id="Hg1yuA1bv0Kx8vVud3k1-55" value="" style="group" vertex="1" connectable="0" parent="Hg1yuA1bv0Kx8vVud3k1-48">
          <mxGeometry width="65" height="40" as="geometry" />
        </mxCell>
        <mxCell id="Hg1yuA1bv0Kx8vVud3k1-31" value="" style="group" vertex="1" connectable="0" parent="Hg1yuA1bv0Kx8vVud3k1-55">
          <mxGeometry width="45" height="20" as="geometry" />
        </mxCell>
        <mxCell id="Hg1yuA1bv0Kx8vVud3k1-9" value="&lt;u&gt;Id&lt;/u&gt;" style="text;html=1;align=left;verticalAlign=middle;resizable=0;points=[];autosize=1;" vertex="1" parent="Hg1yuA1bv0Kx8vVud3k1-31">
          <mxGeometry x="15" width="30" height="20" as="geometry" />
        </mxCell>
        <mxCell id="Hg1yuA1bv0Kx8vVud3k1-6" value="" style="ellipse;whiteSpace=wrap;html=1;aspect=fixed;fillColor=#000000;" vertex="1" parent="Hg1yuA1bv0Kx8vVud3k1-31">
          <mxGeometry y="5" width="10" height="10" as="geometry" />
        </mxCell>
        <mxCell id="Hg1yuA1bv0Kx8vVud3k1-32" value="" style="group" vertex="1" connectable="0" parent="Hg1yuA1bv0Kx8vVud3k1-55">
          <mxGeometry y="20" width="65" height="20" as="geometry" />
        </mxCell>
        <mxCell id="Hg1yuA1bv0Kx8vVud3k1-20" value="" style="ellipse;whiteSpace=wrap;html=1;aspect=fixed;" vertex="1" parent="Hg1yuA1bv0Kx8vVud3k1-32">
          <mxGeometry y="5" width="10" height="10" as="geometry" />
        </mxCell>
        <mxCell id="Hg1yuA1bv0Kx8vVud3k1-21" value="Name" style="text;html=1;align=left;verticalAlign=middle;resizable=0;points=[];autosize=1;" vertex="1" parent="Hg1yuA1bv0Kx8vVud3k1-32">
          <mxGeometry x="15" width="50" height="20" as="geometry" />
        </mxCell>
        <mxCell id="Hg1yuA1bv0Kx8vVud3k1-49" value="" style="group" vertex="1" connectable="0" parent="Hg1yuA1bv0Kx8vVud3k1-50">
          <mxGeometry y="10" width="35.00000000000057" height="80" as="geometry" />
        </mxCell>
        <mxCell id="Hg1yuA1bv0Kx8vVud3k1-44" value="" style="endArrow=none;html=1;rounded=0;exitX=1;exitY=0.5;exitDx=0;exitDy=0;entryX=0;entryY=0.5;entryDx=0;entryDy=0;" edge="1" parent="Hg1yuA1bv0Kx8vVud3k1-49">
          <mxGeometry relative="1" as="geometry">
            <mxPoint y="59.960000000000036" as="sourcePoint" />
            <mxPoint x="35.00000000000057" y="59.960000000000036" as="targetPoint" />
          </mxGeometry>
        </mxCell>
        <mxCell id="Hg1yuA1bv0Kx8vVud3k1-30" value="" style="endArrow=none;html=1;rounded=0;entryX=0;entryY=0.5;entryDx=0;entryDy=0;exitX=1.001;exitY=0.1;exitDx=0;exitDy=0;exitPerimeter=0;" edge="1" parent="Hg1yuA1bv0Kx8vVud3k1-52" source="Hg1yuA1bv0Kx8vVud3k1-2" target="Hg1yuA1bv0Kx8vVud3k1-6">
          <mxGeometry relative="1" as="geometry">
            <mxPoint x="-10" y="105" as="sourcePoint" />
            <mxPoint x="120" y="5" as="targetPoint" />
            <Array as="points">
              <mxPoint x="110" y="30" />
              <mxPoint x="110" y="10" />
            </Array>
          </mxGeometry>
        </mxCell>
        <mxCell id="Hg1yuA1bv0Kx8vVud3k1-39" value="" style="endArrow=none;html=1;rounded=0;exitX=1.001;exitY=0.101;exitDx=0;exitDy=0;exitPerimeter=0;entryX=0;entryY=0.5;entryDx=0;entryDy=0;" edge="1" parent="Hg1yuA1bv0Kx8vVud3k1-52" source="Hg1yuA1bv0Kx8vVud3k1-2" target="Hg1yuA1bv0Kx8vVud3k1-20">
          <mxGeometry relative="1" as="geometry">
            <mxPoint x="110" y="45" as="sourcePoint" />
            <mxPoint x="134" y="30" as="targetPoint" />
            <Array as="points">
              <mxPoint x="110" y="30" />
            </Array>
          </mxGeometry>
        </mxCell>
        <mxCell id="Hg1yuA1bv0Kx8vVud3k1-43" value="" style="endArrow=none;html=1;rounded=0;exitX=1;exitY=0.5;exitDx=0;exitDy=0;entryX=0;entryY=0.5;entryDx=0;entryDy=0;" edge="1" parent="Hg1yuA1bv0Kx8vVud3k1-52" source="Hg1yuA1bv0Kx8vVud3k1-2" target="Hg1yuA1bv0Kx8vVud3k1-23">
          <mxGeometry relative="1" as="geometry">
            <mxPoint x="109.60000000000002" y="39.950000000000045" as="sourcePoint" />
            <mxPoint x="145.00000000000057" y="40" as="targetPoint" />
          </mxGeometry>
        </mxCell>
        <mxCell id="Hg1yuA1bv0Kx8vVud3k1-45" value="" style="endArrow=none;html=1;rounded=0;entryX=0;entryY=0.5;entryDx=0;entryDy=0;exitX=1;exitY=0.899;exitDx=0;exitDy=0;exitPerimeter=0;" edge="1" parent="Hg1yuA1bv0Kx8vVud3k1-52" source="Hg1yuA1bv0Kx8vVud3k1-2" target="Hg1yuA1bv0Kx8vVud3k1-28">
          <mxGeometry relative="1" as="geometry">
            <mxPoint x="120" y="75" as="sourcePoint" />
            <mxPoint x="145.00000000000057" y="79.96000000000004" as="targetPoint" />
            <Array as="points">
              <mxPoint x="110" y="70" />
              <mxPoint x="110" y="90" />
            </Array>
          </mxGeometry>
        </mxCell>
        <mxCell id="Hg1yuA1bv0Kx8vVud3k1-118" value="" style="group" vertex="1" connectable="0" parent="1">
          <mxGeometry x="-150" y="370" width="230" height="100" as="geometry" />
        </mxCell>
        <mxCell id="Hg1yuA1bv0Kx8vVud3k1-89" value="" style="group" vertex="1" connectable="0" parent="Hg1yuA1bv0Kx8vVud3k1-118">
          <mxGeometry width="230" height="100" as="geometry" />
        </mxCell>
        <mxCell id="Hg1yuA1bv0Kx8vVud3k1-90" value="" style="group" vertex="1" connectable="0" parent="Hg1yuA1bv0Kx8vVud3k1-89">
          <mxGeometry width="230" height="100" as="geometry" />
        </mxCell>
        <mxCell id="Hg1yuA1bv0Kx8vVud3k1-142" value="" style="group" vertex="1" connectable="0" parent="Hg1yuA1bv0Kx8vVud3k1-90">
          <mxGeometry x="67.5" width="95" height="100" as="geometry" />
        </mxCell>
        <mxCell id="Hg1yuA1bv0Kx8vVud3k1-127" value="" style="group" vertex="1" connectable="0" parent="Hg1yuA1bv0Kx8vVud3k1-142">
          <mxGeometry width="95" height="100" as="geometry" />
        </mxCell>
        <mxCell id="Hg1yuA1bv0Kx8vVud3k1-126" value="" style="group" vertex="1" connectable="0" parent="Hg1yuA1bv0Kx8vVud3k1-127">
          <mxGeometry y="80" width="95" height="20" as="geometry" />
        </mxCell>
        <mxCell id="Hg1yuA1bv0Kx8vVud3k1-102" value="" style="ellipse;whiteSpace=wrap;html=1;aspect=fixed;" vertex="1" parent="Hg1yuA1bv0Kx8vVud3k1-126">
          <mxGeometry x="85" y="5" width="10" height="10" as="geometry" />
        </mxCell>
        <mxCell id="Hg1yuA1bv0Kx8vVud3k1-103" value="Description" style="text;html=1;align=right;verticalAlign=middle;resizable=0;points=[];autosize=1;" vertex="1" parent="Hg1yuA1bv0Kx8vVud3k1-126">
          <mxGeometry width="80" height="20" as="geometry" />
        </mxCell>
        <mxCell id="Hg1yuA1bv0Kx8vVud3k1-141" value="" style="group" vertex="1" connectable="0" parent="Hg1yuA1bv0Kx8vVud3k1-127">
          <mxGeometry x="20" width="75" height="80" as="geometry" />
        </mxCell>
        <mxCell id="Hg1yuA1bv0Kx8vVud3k1-122" value="" style="group" vertex="1" connectable="0" parent="Hg1yuA1bv0Kx8vVud3k1-141">
          <mxGeometry x="10" y="20" width="65" height="20" as="geometry" />
        </mxCell>
        <mxCell id="Hg1yuA1bv0Kx8vVud3k1-110" value="Name" style="text;html=1;align=right;verticalAlign=middle;resizable=0;points=[];autosize=1;" vertex="1" parent="Hg1yuA1bv0Kx8vVud3k1-122">
          <mxGeometry width="50" height="20" as="geometry" />
        </mxCell>
        <mxCell id="Hg1yuA1bv0Kx8vVud3k1-140" value="" style="group" vertex="1" connectable="0" parent="Hg1yuA1bv0Kx8vVud3k1-122">
          <mxGeometry x="55" y="5" width="10" height="10" as="geometry" />
        </mxCell>
        <mxCell id="Hg1yuA1bv0Kx8vVud3k1-109" value="" style="ellipse;whiteSpace=wrap;html=1;aspect=fixed;" vertex="1" parent="Hg1yuA1bv0Kx8vVud3k1-140">
          <mxGeometry width="10" height="10" as="geometry" />
        </mxCell>
        <mxCell id="Hg1yuA1bv0Kx8vVud3k1-125" value="" style="group" vertex="1" connectable="0" parent="Hg1yuA1bv0Kx8vVud3k1-141">
          <mxGeometry y="60" width="75" height="20" as="geometry" />
        </mxCell>
        <mxCell id="Hg1yuA1bv0Kx8vVud3k1-99" value="" style="ellipse;whiteSpace=wrap;html=1;aspect=fixed;" vertex="1" parent="Hg1yuA1bv0Kx8vVud3k1-125">
          <mxGeometry x="65" y="5" width="10" height="10" as="geometry" />
        </mxCell>
        <mxCell id="Hg1yuA1bv0Kx8vVud3k1-100" value="Pictures" style="text;html=1;align=right;verticalAlign=middle;resizable=0;points=[];autosize=1;" vertex="1" parent="Hg1yuA1bv0Kx8vVud3k1-125">
          <mxGeometry width="60" height="20" as="geometry" />
        </mxCell>
        <mxCell id="Hg1yuA1bv0Kx8vVud3k1-137" value="" style="group" vertex="1" connectable="0" parent="Hg1yuA1bv0Kx8vVud3k1-141">
          <mxGeometry x="20" width="55" height="60" as="geometry" />
        </mxCell>
        <mxCell id="Hg1yuA1bv0Kx8vVud3k1-121" value="" style="group" vertex="1" connectable="0" parent="Hg1yuA1bv0Kx8vVud3k1-137">
          <mxGeometry x="10" width="45" height="20" as="geometry" />
        </mxCell>
        <mxCell id="Hg1yuA1bv0Kx8vVud3k1-106" value="&lt;u&gt;Id&lt;/u&gt;" style="text;html=1;align=right;verticalAlign=middle;resizable=0;points=[];autosize=1;" vertex="1" parent="Hg1yuA1bv0Kx8vVud3k1-121">
          <mxGeometry width="30" height="20" as="geometry" />
        </mxCell>
        <mxCell id="Hg1yuA1bv0Kx8vVud3k1-107" value="" style="ellipse;whiteSpace=wrap;html=1;aspect=fixed;fillColor=#000000;" vertex="1" parent="Hg1yuA1bv0Kx8vVud3k1-121">
          <mxGeometry x="35" y="5" width="10" height="10" as="geometry" />
        </mxCell>
        <mxCell id="Hg1yuA1bv0Kx8vVud3k1-123" value="" style="group" vertex="1" connectable="0" parent="Hg1yuA1bv0Kx8vVud3k1-137">
          <mxGeometry y="40" width="55" height="20" as="geometry" />
        </mxCell>
        <mxCell id="Hg1yuA1bv0Kx8vVud3k1-96" value="" style="ellipse;whiteSpace=wrap;html=1;aspect=fixed;" vertex="1" parent="Hg1yuA1bv0Kx8vVud3k1-123">
          <mxGeometry x="45" y="5" width="10" height="10" as="geometry" />
        </mxCell>
        <mxCell id="Hg1yuA1bv0Kx8vVud3k1-97" value="Infos" style="text;html=1;align=right;verticalAlign=middle;resizable=0;points=[];autosize=1;" vertex="1" parent="Hg1yuA1bv0Kx8vVud3k1-123">
          <mxGeometry width="40" height="20" as="geometry" />
        </mxCell>
        <mxCell id="Hg1yuA1bv0Kx8vVud3k1-92" value="Service" style="rounded=1;arcSize=10;whiteSpace=wrap;html=1;align=center;" vertex="1" parent="1">
          <mxGeometry x="50" y="395" width="100" height="50" as="geometry" />
        </mxCell>
        <mxCell id="Hg1yuA1bv0Kx8vVud3k1-129" value="" style="endArrow=none;html=1;rounded=0;exitX=1;exitY=0.5;exitDx=0;exitDy=0;entryX=0;entryY=0.1;entryDx=0;entryDy=0;entryPerimeter=0;" edge="1" parent="1" source="Hg1yuA1bv0Kx8vVud3k1-109" target="Hg1yuA1bv0Kx8vVud3k1-92">
          <mxGeometry relative="1" as="geometry">
            <mxPoint x="10" y="410" as="sourcePoint" />
            <mxPoint x="40" y="400" as="targetPoint" />
          </mxGeometry>
        </mxCell>
        <mxCell id="Hg1yuA1bv0Kx8vVud3k1-131" value="" style="endArrow=none;html=1;rounded=0;entryX=0;entryY=0.5;entryDx=0;entryDy=0;exitX=1;exitY=0.5;exitDx=0;exitDy=0;" edge="1" parent="1" source="Hg1yuA1bv0Kx8vVud3k1-96" target="Hg1yuA1bv0Kx8vVud3k1-92">
          <mxGeometry relative="1" as="geometry">
            <mxPoint x="-5" y="420" as="sourcePoint" />
            <mxPoint x="55" y="419.93" as="targetPoint" />
          </mxGeometry>
        </mxCell>
        <mxCell id="Hg1yuA1bv0Kx8vVud3k1-135" value="" style="endArrow=none;html=1;rounded=0;exitX=1;exitY=0.5;exitDx=0;exitDy=0;horizontal=0;entryX=0;entryY=0.899;entryDx=0;entryDy=0;entryPerimeter=0;" edge="1" parent="1" source="Hg1yuA1bv0Kx8vVud3k1-102" target="Hg1yuA1bv0Kx8vVud3k1-92">
          <mxGeometry relative="1" as="geometry">
            <mxPoint x="10" y="460" as="sourcePoint" />
            <mxPoint x="50" y="450" as="targetPoint" />
            <Array as="points">
              <mxPoint x="40" y="460" />
              <mxPoint x="40" y="440" />
            </Array>
          </mxGeometry>
        </mxCell>
        <mxCell id="Hg1yuA1bv0Kx8vVud3k1-132" value="" style="endArrow=none;html=1;rounded=0;exitX=1;exitY=0.5;exitDx=0;exitDy=0;" edge="1" parent="1" source="Hg1yuA1bv0Kx8vVud3k1-99">
          <mxGeometry relative="1" as="geometry">
            <mxPoint x="-5" y="440" as="sourcePoint" />
            <mxPoint x="40" y="440" as="targetPoint" />
          </mxGeometry>
        </mxCell>
        <mxCell id="Hg1yuA1bv0Kx8vVud3k1-139" value="" style="endArrow=none;html=1;rounded=0;exitX=1;exitY=0.5;exitDx=0;exitDy=0;entryX=-0.002;entryY=0.097;entryDx=0;entryDy=0;entryPerimeter=0;" edge="1" parent="1" source="Hg1yuA1bv0Kx8vVud3k1-107" target="Hg1yuA1bv0Kx8vVud3k1-92">
          <mxGeometry relative="1" as="geometry">
            <mxPoint x="20" y="380" as="sourcePoint" />
            <mxPoint x="180" y="380" as="targetPoint" />
            <Array as="points">
              <mxPoint x="40" y="380" />
              <mxPoint x="40" y="400" />
            </Array>
          </mxGeometry>
        </mxCell>
      </root>
    </mxGraphModel>
  </diagram>
</mxfile>
